HIERARCHY
ROOT hip
{
  OFFSET 0.0 0.0 0.0
  CHANNELS 6 Xposition Yposition Zposition Zrotation Yrotation Xrotation
  JOINT abdomen
  {
    OFFSET 0.0 20.6881 -0.73152
    CHANNELS 3 Zrotation Xrotation Yrotation
    JOINT chest
    {
      OFFSET 0.0 11.7043 -0.48768
      CHANNELS 3 Zrotation Xrotation Yrotation
      JOINT neck
      {
        OFFSET 0.0 22.1894 -2.19456
        CHANNELS 3 Zrotation Xrotation Yrotation
        JOINT head
        {
          OFFSET -0.24384 7.07133 1.2192
          CHANNELS 3 Zrotation Xrotation Yrotation
          JOINT leftEye
          {
            OFFSET 4.14528 8.04674 8.04672
            CHANNELS 3 Zrotation Xrotation Yrotation
            End Site
            {
              OFFSET 1.0 0.0 0.0
            }
          }
          JOINT rightEye
          {
            OFFSET -3.6576 8.04674 8.04672
            CHANNELS 3 Zrotation Xrotation Yrotation
            End Site
            {
              OFFSET 1.0 0.0 0.0
            }
          }
        }
      }
      JOINT rCollar
      {
        OFFSET -2.68224 19.2634 -4.8768
        CHANNELS 3 Zrotation Xrotation Yrotation
        JOINT rShldr
        {
          OFFSET -8.77824 -1.95073 1.46304
          CHANNELS 3 Zrotation Xrotation Yrotation
          JOINT rForeArm
          {
            OFFSET -28.1742 -1.7115 0.48768
            CHANNELS 3 Zrotation Xrotation Yrotation
            JOINT rHand
            {
              OFFSET -22.5879 0.773209 7.07136
              CHANNELS 3 Zrotation Xrotation Yrotation
              JOINT rThumb1
              {
                OFFSET -1.2192 -0.487915 3.41376
                CHANNELS 3 Zrotation Xrotation Yrotation
                JOINT rThumb2
                {
                  OFFSET -3.37035 -0.52449 3.41376
                  CHANNELS 3 Zrotation Xrotation Yrotation
                  End Site
                  {
                    OFFSET -1.78271 -1.18214 1.43049
                  }
                }
              }
              JOINT rIndex1
              {
                OFFSET -7.75947 0.938293 5.60832
                CHANNELS 3 Zrotation Xrotation Yrotation
                JOINT rIndex2
                {
                  OFFSET -2.54057 -0.884171 1.56538
                  CHANNELS 3 Zrotation Xrotation Yrotation
                  End Site
                  {
                    OFFSET -1.62519 -0.234802 1.16502
                  }
                }
              }
              JOINT rMid1
              {
                OFFSET -8.24714 1.18213 3.41376
                CHANNELS 3 Zrotation Xrotation Yrotation
                JOINT rMid2
                {
                  OFFSET -3.10165 -0.590103 1.0647
                  CHANNELS 3 Zrotation Xrotation Yrotation
                  End Site
                  {
                    OFFSET -2.48547 -0.328903 0.83742
                  }
                }
              }
              JOINT rRing1
              {
                OFFSET -8.82822 0.546677 1.51678
                CHANNELS 3 Zrotation Xrotation Yrotation
                JOINT rRing2
                {
                  OFFSET -2.60934 -0.819778 -0.0198488
                  CHANNELS 3 Zrotation Xrotation Yrotation
                  End Site
                  {
                    OFFSET -2.33842 -0.294052 0.168128
                  }
                }
              }
              JOINT rPinky1
              {
                OFFSET -8.27202 -0.0477905 -0.4584
                CHANNELS 3 Zrotation Xrotation Yrotation
                JOINT rPinky2
                {
                  OFFSET -1.82734 -0.647385 -0.700984
                  CHANNELS 3 Zrotation Xrotation Yrotation
                  End Site
                  {
                    OFFSET -1.69225 -0.51767 -0.607171
                  }
                }
              }
            }
          }
        }
      }
      JOINT lCollar
      {
        OFFSET 2.68224 19.2634 -4.8768
        CHANNELS 3 Zrotation Xrotation Yrotation
        JOINT lShldr
        {
          OFFSET 8.77824 -1.95073 1.46304
          CHANNELS 3 Zrotation Xrotation Yrotation
          JOINT lForeArm
          {
            OFFSET 28.1742 -1.7115 0.48768
            CHANNELS 3 Zrotation Xrotation Yrotation
            JOINT lHand
            {
              OFFSET 22.5879 0.773209 7.07136
              CHANNELS 3 Zrotation Xrotation Yrotation
              JOINT lThumb1
              {
                OFFSET 1.2192 -0.487915 3.41376
                CHANNELS 3 Zrotation Xrotation Yrotation
                JOINT lThumb2
                {
                  OFFSET 3.37035 -0.52449 3.41376
                  CHANNELS 3 Zrotation Xrotation Yrotation
                  End Site
                  {
                    OFFSET 1.78271 -1.18214 1.43049
                  }
                }
              }
              JOINT lIndex1
              {
                OFFSET 7.75947 0.938293 5.60832
                CHANNELS 3 Zrotation Xrotation Yrotation
                JOINT lIndex2
                {
                  OFFSET 2.54057 -0.884171 1.56538
                  CHANNELS 3 Zrotation Xrotation Yrotation
                  End Site
                  {
                    OFFSET 1.62519 -0.234802 1.16502
                  }
                }
              }
              JOINT lMid1
              {
                OFFSET 8.24714 1.18213 3.41376
                CHANNELS 3 Zrotation Xrotation Yrotation
                JOINT lMid2
                {
                  OFFSET 3.10165 -0.590103 1.0647
                  CHANNELS 3 Zrotation Xrotation Yrotation
                  End Site
                  {
                    OFFSET 2.48547 -0.328903 0.83742
                  }
                }
              }
              JOINT lRing1
              {
                OFFSET 8.82822 0.546677 1.51678
                CHANNELS 3 Zrotation Xrotation Yrotation
                JOINT lRing2
                {
                  OFFSET 2.60934 -0.819778 -0.0198488
                  CHANNELS 3 Zrotation Xrotation Yrotation
                  End Site
                  {
                    OFFSET 2.33842 -0.294052 0.168128
                  }
                }
              }
              JOINT lPinky1
              {
                OFFSET 8.27202 -0.0477905 -0.4584
                CHANNELS 3 Zrotation Xrotation Yrotation
                JOINT lPinky2
                {
                  OFFSET 1.82734 -0.647385 -0.700984
                  CHANNELS 3 Zrotation Xrotation Yrotation
                  End Site
                  {
                    OFFSET 1.69225 -0.51767 -0.607171
                  }
                }
              }
            }
          }
        }
      }
    }
  }
  JOINT rButtock
  {
    OFFSET -8.77824 4.35084 1.2192
    CHANNELS 3 Zrotation Xrotation Yrotation
    JOINT rThigh
    {
      OFFSET 0.0 -1.70687 -2.19456
      CHANNELS 3 Zrotation Xrotation Yrotation
      JOINT rShin
      {
        OFFSET 0.0 -36.8199 0.73152
        CHANNELS 3 Zrotation Xrotation Yrotation
        JOINT rFoot
        {
          OFFSET 0.73152 -45.1104 -5.12064
          CHANNELS 3 Zrotation Xrotation Yrotation
          End Site
          {
            OFFSET -1.1221 -3.69964 12.103
          }
        }
      }
    }
  }
  JOINT lButtock
  {
    OFFSET 8.77824 4.35084 1.2192
    CHANNELS 3 Zrotation Xrotation Yrotation
    JOINT lThigh
    {
      OFFSET 0.0 -1.70687 -2.19456
      CHANNELS 3 Zrotation Xrotation Yrotation
      JOINT lShin
      {
        OFFSET 0.0 -36.8199 0.73152
        CHANNELS 3 Zrotation Xrotation Yrotation
        JOINT lFoot
        {
          OFFSET -0.73152 -45.1104 -5.12064
          CHANNELS 3 Zrotation Xrotation Yrotation
          End Site
          {
            OFFSET 1.1221 -3.69964 12.103
          }
        }
      }
    }
  }
}
MOTION
Frames: 5
Frame Time: 0.00833333
-90.1604 82.8574 -38.8224 0.8751 84.3337 1.4188 -5.01398 3.29505 -0.662705 -1.73133 -0.357115 -0.374113 0.8927 9.72073 0.211436 3.29924 -21.6854 1.00204 -0.0 0.0 0.0 -0.0 0.0 0.0 -4.20227e-14 1.83239e-12 1.95654e-13 82.2478 18.6842 2.3351 -11.0937 -4.83299 19.869 -0.0300823 4.94478 0.696691 -1.25956e-10 -1.69384e-09 1.35844e-09 -2.10315e-10 -2.93084e-09 2.34994e-09 -1.25954e-10 -1.69384e-09 1.35843e-09 7.73091 5.47488 0.417314 -1.25967e-10 -1.69385e-09 1.35845e-09 2.90554 0.965183 0.102902 -1.25955e-10 -1.69384e-09 1.35843e-09 10.2786 0.731801 0.0259123 -1.25961e-10 -1.69383e-09 1.35843e-09 2.22167 -0.733487 -0.20892 -4.22151e-14 1.83241e-12 1.95505e-13 -76.7782 19.9078 -6.06922 14.1225 -7.05373 -25.8008 0.500772 -19.6973 2.88396 -1.92075e-10 9.84474e-10 1.87535e-10 -3.38772e-10 1.70559e-09 3.23485e-10 -1.92081e-10 9.84473e-10 1.87535e-10 -7.73091 5.47488 -0.417314 -1.92075e-10 9.84474e-10 1.87538e-10 -2.90554 0.965183 -0.102902 -1.92077e-10 9.84474e-10 1.87532e-10 -10.2786 0.731801 -0.0259123 -1.92072e-10 9.84477e-10 1.87526e-10 -2.22167 -0.733487 0.20892 -2.03217e-16 0.0 -3.88251e-19 -0.430291 -28.4582 7.86367 -0.269269 37.4368 0.978646 -2.63025 -6.46839 -10.1746 2.03217e-16 0.0 3.88251e-19 -3.96039 -1.14313 17.393 -0.134344 25.2376 -0.883516 0.401459 -4.05038 -5.25462
-89.5577 82.8801 -38.7857 1.6821 84.4088 2.3363 -5.06754 3.24127 -0.671958 -1.68272 -0.393065 -0.366455 0.891261 9.70934 0.198372 3.29392 -21.7639 0.976285 -0.0 0.0 0.0 -0.0 0.0 0.0 -4.29824e-14 1.52608e-12 1.49184e-13 82.2336 18.511 2.30506 -11.0434 -4.80001 19.7732 -0.0319049 5.09335 0.717731 -3.3287e-11 -1.56136e-09 1.53457e-09 -4.88154e-11 -2.70115e-09 2.65382e-09 -3.32828e-11 -1.56137e-09 1.53455e-09 7.73091 5.47488 0.417314 -3.32958e-11 -1.56137e-09 1.53458e-09 2.90554 0.965183 0.102902 -3.32852e-11 -1.56136e-09 1.53456e-09 10.2786 0.731801 0.0259123 -3.32914e-11 -1.56136e-09 1.53456e-09 2.22167 -0.733487 -0.20892 -4.3179e-14 1.5261e-12 1.48977e-13 -76.7419 20.1085 -6.21403 14.2007 -7.11741 -25.9589 0.505754 -19.7901 2.89871 -2.07427e-10 8.28556e-10 -2.84484e-11 -3.62527e-10 1.43453e-09 -5.00951e-11 -2.07434e-10 8.28555e-10 -2.84481e-11 -7.73091 5.47488 -0.417314 -2.07427e-10 8.28555e-10 -2.84462e-11 -2.90554 0.965183 -0.102902 -2.0743e-10 8.28555e-10 -2.8452e-11 -10.2786 0.731801 -0.0259123 -2.07423e-10 8.28559e-10 -2.84568e-11 -2.22167 -0.733487 0.20892 -2.03217e-16 0.0 -3.88251e-19 -0.428893 -28.9954 8.19845 -0.248525 36.1292 0.957927 -2.34943 -5.50095 -9.57106 2.03217e-16 0.0 3.88251e-19 -4.13997 -0.353801 17.5431 -0.130295 24.3089 -0.910776 0.391492 -3.99787 -5.35032
-88.9601 82.8999 -38.7526 2.598 84.4558 3.3727 -5.12993 3.18202 -0.675042 -1.63599 -0.424637 -0.357051 0.890494 9.69218 0.188535 3.2827 -21.8407 0.955467 -0.0 0.0 0.0 -0.0 0.0 0.0 -3.77074e-14 9.53019e-13 7.56407e-14 82.2168 18.337 2.2801 -10.9925 -4.76679 19.6763 -0.033895 5.25013 0.739948 -2.49774e-12 -1.32911e-09 1.72433e-09 5.91369e-12 -2.29896e-09 2.98145e-09 -2.49185e-12 -1.32911e-09 1.72433e-09 7.73091 5.47488 0.417314 -2.50326e-12 -1.32912e-09 1.72434e-09 2.90554 0.965183 0.102902 -2.49401e-12 -1.32911e-09 1.72433e-09 10.2786 0.731801 0.0259123 -2.50134e-12 -1.32911e-09 1.72433e-09 2.22167 -0.733487 -0.20892 -3.79079e-14 9.53039e-13 7.53394e-14 -76.7158 20.2969 -6.34803 14.2706 -7.17482 -26.1001 0.510511 -19.8784 2.91274 -3.08118e-10 6.76288e-10 -2.77042e-10 -5.33501e-10 1.16945e-09 -4.80922e-10 -3.08127e-10 6.76288e-10 -2.7704e-10 -7.73091 5.47488 -0.417314 -3.08118e-10 6.76286e-10 -2.77041e-10 -2.90554 0.965183 -0.102902 -3.08122e-10 6.76286e-10 -2.77045e-10 -10.2786 0.731801 -0.0259123 -3.08113e-10 6.7629e-10 -2.77048e-10 -2.22167 -0.733487 0.20892 -2.03217e-16 0.0 -3.88251e-19 -0.439317 -29.5166 8.56979 -0.229415 34.8321 0.938171 -2.06883 -4.41757 -8.95864 2.03217e-16 0.0 3.88251e-19 -4.34501 0.452746 17.7091 -0.119986 23.3393 -0.937512 0.378138 -3.93948 -5.46179
-88.3661 82.9172 -38.7211 3.4905 84.4832 4.3914 -5.19529 3.11708 -0.673782 -1.59331 -0.457073 -0.347407 0.88859 9.67842 0.178577 3.26948 -21.9228 0.934317 -0.0 0.0 0.0 -0.0 0.0 0.0 -2.9326e-14 3.35871e-13 1.72344e-15 82.1997 18.1652 2.25191 -10.9438 -4.73501 19.5835 -0.0359243 5.40376 0.761729 -8.73676e-12 -1.07365e-09 1.89015e-09 -3.47088e-12 -1.85669e-09 3.26782e-09 -8.72954e-12 -1.07365e-09 1.89015e-09 7.73091 5.47488 0.417314 -8.73887e-12 -1.07365e-09 1.89015e-09 2.90554 0.965183 0.102902 -8.73098e-12 -1.07365e-09 1.89015e-09 10.2786 0.731801 0.0259123 -8.73962e-12 -1.07365e-09 1.89015e-09 2.22167 -0.733487 -0.20892 -2.95311e-14 3.35891e-13 1.3286e-15 -76.7025 20.47 -6.47129 14.3281 -7.22234 -26.2165 0.514603 -19.9539 2.92476 -4.35543e-10 5.49829e-10 -5.0805e-10 -7.50891e-10 9.49077e-10 -8.81645e-10 -4.35555e-10 5.49829e-10 -5.08045e-10 -7.73091 5.47488 -0.417314 -4.35544e-10 5.49825e-10 -5.0805e-10 -2.90554 0.965183 -0.102902 -4.3555e-10 5.49826e-10 -5.08052e-10 -10.2786 0.731801 -0.0259123 -4.35539e-10 5.4983e-10 -5.08054e-10 -2.22167 -0.733487 0.20892 -2.03217e-16 0.0 -3.88251e-19 -0.45725 -30.0176 8.94486 -0.21213 33.559 0.921824 -1.82388 -3.27284 -8.48777 2.03217e-16 0.0 3.88251e-19 -4.58666 1.30618 17.8507 -0.108064 22.2686 -0.96144 0.371559 -3.837 -5.54368
-87.7731 82.9228 -38.6905 4.346 84.4892 5.3758 -5.25777 3.04618 -0.670003 -1.55683 -0.495612 -0.339031 0.883738 9.67726 0.16515 3.25814 -22.0174 0.907548 -0.0 0.0 0.0 -0.0 0.0 0.0 -2.09663e-14 -1.02682e-13 -4.58696e-14 82.1844 17.9982 2.21222 -10.8997 -4.70637 19.4997 -0.0378298 5.54285 0.781461 -2.71524e-11 -8.71532e-10 1.99443e-09 -3.43118e-11 -1.50673e-09 3.44793e-09 -2.71448e-11 -8.71533e-10 1.99442e-09 7.73091 5.47488 0.417314 -2.71523e-11 -8.71535e-10 1.99442e-09 2.90554 0.965183 0.102902 -2.71454e-11 -8.71535e-10 1.99442e-09 10.2786 0.731801 0.0259123 -2.71546e-11 -8.71534e-10 1.99443e-09 2.22167 -0.733487 -0.20892 -2.11775e-14 -1.02664e-13 -4.63168e-14 -76.7047 20.6251 -6.58385 14.3693 -7.25638 -26.3003 0.517579 -20.0084 2.93346 -5.311e-10 4.71336e-10 -6.71275e-10 -9.13895e-10 8.1219e-10 -1.16491e-09 -5.31112e-10 4.71336e-10 -6.71269e-10 -7.73091 5.47488 -0.417314 -5.31101e-10 4.71332e-10 -6.71275e-10 -2.90554 0.965183 -0.102902 -5.31108e-10 4.71333e-10 -6.71277e-10 -10.2786 0.731801 -0.0259123 -5.31095e-10 4.71337e-10 -6.71278e-10 -2.22167 -0.733487 0.20892 -2.03217e-16 0.0 -3.88251e-19 -0.479911 -30.4947 9.29007 -0.196589 32.3233 0.911172 -1.63561 -2.12372 -8.30735 2.03217e-16 0.0 3.88251e-19 -4.87392 2.23688 17.9279 -0.0990783 21.0364 -0.980394 0.381723 -3.65224 -5.55069
